<svg width="70" height="72" viewBox="0 0 70 72" fill="none" xmlns="http://www.w3.org/2000/svg">
<path d="M64.111 37.8813C63.5413 37.2329 63.2272 36.3994 63.2272 35.5363C63.2272 34.6732 63.5413 33.8396 64.111 33.1912L68.659 28.0747C69.1602 27.5156 69.4714 26.8123 69.548 26.0654C69.6246 25.3185 69.4626 24.5666 69.0854 23.9175L61.9791 11.6236C61.6057 10.9752 61.0371 10.4613 60.3544 10.1551C59.6717 9.8488 58.9098 9.76588 58.1772 9.9181L51.4973 11.2683C50.6473 11.4439 49.7625 11.3024 49.0097 10.8703C48.257 10.4383 47.6883 9.74572 47.4112 8.92322L45.2438 2.42097C45.0054 1.71524 44.5513 1.10227 43.9456 0.668709C43.3399 0.235143 42.6132 0.0029093 41.8683 0.00483213H27.6557C26.8809 -0.0356099 26.1141 0.178675 25.4725 0.614957C24.831 1.05124 24.3498 1.68554 24.1026 2.42097L22.1128 8.92322C21.8357 9.74572 21.2671 10.4383 20.5143 10.8703C19.7615 11.3024 18.8767 11.4439 18.0267 11.2683L11.1691 9.9181C10.4747 9.81997 9.76671 9.92955 9.13442 10.2331C8.50212 10.5366 7.9738 11.0204 7.61599 11.6236L0.509702 23.9175C0.122978 24.5594 -0.0509057 25.3071 0.0129105 26.0537C0.0767267 26.8004 0.374975 27.5077 0.865016 28.0747L5.37751 33.1912C5.94715 33.8396 6.2613 34.6732 6.2613 35.5363C6.2613 36.3994 5.94715 37.2329 5.37751 37.8813L0.865016 42.9979C0.374975 43.5648 0.0767267 44.2722 0.0129105 45.0188C-0.0509057 45.7655 0.122978 46.5132 0.509702 47.1551L7.61599 59.4489C7.98942 60.0973 8.55799 60.6113 9.24067 60.9175C9.92335 61.2237 10.6853 61.3067 11.4179 61.1544L18.0978 59.8042C18.9477 59.6286 19.8326 59.7702 20.5854 60.2022C21.3381 60.6342 21.9067 61.3268 22.1839 62.1493L24.3513 68.6516C24.5985 69.387 25.0797 70.0213 25.7213 70.4576C26.3629 70.8939 27.1296 71.1082 27.9044 71.0677H42.117C42.8619 71.0696 43.5886 70.8374 44.1943 70.4038C44.8 69.9703 45.2541 69.3573 45.4925 68.6516L47.6599 62.1493C47.9371 61.3268 48.5057 60.6342 49.2584 60.2022C50.0112 59.7702 50.8961 59.6286 51.746 59.8042L58.4259 61.1544C59.1585 61.3067 59.9205 61.2237 60.6031 60.9175C61.2858 60.6113 61.8544 60.0973 62.2278 59.4489L69.3341 47.1551C69.7114 46.5059 69.8733 45.754 69.7967 45.0072C69.7201 44.2603 69.4089 43.5569 68.9077 42.9979L64.111 37.8813ZM58.8168 42.6426L61.6593 45.8404L57.1113 53.7284L52.9186 52.8756C50.3595 52.3525 47.6975 52.7872 45.4378 54.0972C43.1781 55.4072 41.478 57.5012 40.6602 59.9819L39.31 63.9614H30.214L28.9349 59.9108C28.1171 57.4302 26.417 55.3361 24.1573 54.0261C21.8976 52.7162 19.2356 52.2815 16.6765 52.8046L12.4838 53.6573L7.86471 45.8049L10.7072 42.607C12.4552 40.6527 13.4216 38.1227 13.4216 35.5007C13.4216 32.8788 12.4552 30.3488 10.7072 28.3945L7.86471 25.1966L12.4127 17.3797L16.6054 18.2325C19.1645 18.7556 21.8265 18.3209 24.0862 17.0109C26.346 15.7009 28.0461 13.6068 28.8638 11.1262L30.214 7.11112H39.31L40.6602 11.1617C41.478 13.6424 43.1781 15.7364 45.4378 17.0464C47.6975 18.3564 50.3595 18.7911 52.9186 18.268L57.1113 17.4152L61.6593 25.3032L58.8168 28.5011C57.0884 30.4509 56.1341 32.9662 56.1341 35.5718C56.1341 38.1774 57.0884 40.6927 58.8168 42.6426ZM34.762 21.3237C31.951 21.3237 29.2032 22.1573 26.8659 23.719C24.5287 25.2806 22.707 27.5003 21.6313 30.0974C20.5556 32.6944 20.2741 35.552 20.8225 38.309C21.3709 41.066 22.7245 43.5984 24.7122 45.5861C26.6999 47.5737 29.2323 48.9274 31.9893 49.4758C34.7462 50.0242 37.6039 49.7427 40.2009 48.667C42.7979 47.5913 45.0176 45.7696 46.5793 43.4324C48.141 41.0951 48.9746 38.3473 48.9746 35.5363C48.9746 31.7669 47.4772 28.1518 44.8118 25.4865C42.1464 22.8211 38.5314 21.3237 34.762 21.3237ZM34.762 42.6426C33.3565 42.6426 31.9826 42.2258 30.814 41.4449C29.6453 40.6641 28.7345 39.5542 28.1967 38.2557C27.6588 36.9572 27.5181 35.5284 27.7923 34.1499C28.0665 32.7714 28.7433 31.5052 29.7371 30.5114C30.7309 29.5175 31.9972 28.8407 33.3756 28.5665C34.7541 28.2923 36.183 28.4331 37.4815 28.9709C38.78 29.5088 39.8898 30.4196 40.6707 31.5882C41.4515 32.7569 41.8683 34.1308 41.8683 35.5363C41.8683 37.421 41.1196 39.2285 39.7869 40.5612C38.4542 41.8939 36.6467 42.6426 34.762 42.6426Z" fill="#5B8FB9"/>
</svg>
