<svg width="51" height="51" viewBox="0 0 51 51" fill="none" xmlns="http://www.w3.org/2000/svg">
<path d="M40.7003 31.5471C40.4976 31.0961 40.466 30.5867 40.6115 30.114C40.7569 29.6414 41.0694 29.2379 41.4906 28.9788L44.8433 26.9434C45.2119 26.7217 45.5009 26.389 45.6687 25.9929C45.8365 25.5968 45.8745 25.1578 45.7773 24.7387L43.9575 16.8091C43.8623 16.3912 43.6375 16.0139 43.3153 15.7312C42.9931 15.4484 42.5898 15.2746 42.163 15.2346L38.2776 14.8483C37.7825 14.8012 37.3218 14.5746 36.9824 14.2112C36.643 13.8478 36.4483 13.3727 36.4352 12.8756L36.344 8.94972C36.3324 8.5231 36.187 8.11091 35.9284 7.77142C35.6697 7.43193 35.3109 7.18231 34.9027 7.05784L27.1199 4.66289C26.7024 4.51018 26.2464 4.49832 25.8216 4.62911C25.3967 4.7599 25.0264 5.02617 24.7671 5.38723L22.5818 8.61257C22.2914 9.01627 21.8633 9.29973 21.3783 9.40945C20.8933 9.51918 20.3849 9.44759 19.9491 9.20819L16.4214 7.31326C16.0576 7.1425 15.6515 7.08321 15.2541 7.14286C14.8567 7.2025 14.4859 7.37843 14.1883 7.64846L8.22523 13.1831C7.9053 13.4694 7.68409 13.8496 7.59322 14.2692C7.50234 14.6888 7.54647 15.1264 7.71928 15.5195L9.32814 19.0817C9.53081 19.5327 9.56237 20.0421 9.41694 20.5148C9.2715 20.9874 8.959 21.3909 8.53781 21.65L5.20458 23.6914C4.8407 23.9193 4.55819 24.2564 4.39742 24.6545C4.23666 25.0526 4.20588 25.4913 4.30949 25.908L6.12926 33.8376C6.22449 34.2556 6.44924 34.6328 6.77147 34.9156C7.0937 35.1983 7.49696 35.3721 7.92377 35.4122L11.8092 35.7985C12.3042 35.8455 12.7649 36.0721 13.1044 36.4356C13.4438 36.799 13.6384 37.2741 13.6516 37.7712L13.7428 41.697C13.7542 42.1414 13.9108 42.5698 14.1887 42.9169C14.4665 43.2639 14.8502 43.5104 15.2813 43.6188L23.0642 46.0138C23.4717 46.1404 23.9088 46.1356 24.3135 46.0003C24.7183 45.8649 25.0703 45.6058 25.3197 45.2595L27.6023 42.0641C27.8926 41.6604 28.3207 41.377 28.8057 41.2672C29.2908 41.1575 29.7992 41.2291 30.235 41.4685L33.6654 43.3335C34.0409 43.5403 34.4721 43.6233 34.8976 43.5706C35.323 43.518 35.721 43.3323 36.0347 43.0402L41.9977 37.5056C42.3137 37.2137 42.5291 36.8292 42.613 36.4073C42.6969 35.9854 42.645 35.5478 42.4648 35.1572L40.7003 31.5471ZM36.9989 33.2622L38.0166 35.4924L34.1969 39.0454L32.0446 37.872C30.7314 37.1543 29.2005 36.9438 27.7423 37.2803C26.2841 37.6169 25.0003 38.4771 24.1345 39.6977L22.7245 41.6494L17.7435 40.1166L17.7256 37.683C17.6959 36.1868 17.1178 34.7536 16.1011 33.6554C15.0844 32.5573 13.6999 31.8707 12.2104 31.7259L9.77082 31.4864L8.56461 26.408L10.66 25.1359C11.9466 24.3603 12.9021 23.1377 13.3439 21.7019C13.7857 20.2661 13.6829 18.7178 13.055 17.3531L12.0373 15.123L15.845 11.6088L17.9972 12.7823C19.3104 13.4999 20.8414 13.7105 22.2996 13.3739C23.7577 13.0374 25.0416 12.1771 25.9074 10.9565L27.3233 8.98539L32.3043 10.5182L32.3611 12.9638C32.3909 14.46 32.969 15.8932 33.9857 16.9913C35.0024 18.0894 36.3868 18.7761 37.8763 18.9208L40.316 19.1604L41.4773 24.2462L39.3818 25.5184C38.1068 26.2948 37.1604 27.5114 36.7213 28.9382C36.2822 30.3651 36.381 31.9033 36.9989 33.2622ZM27.4189 17.5346C25.8796 17.0609 24.2344 17.0543 22.6914 17.5157C21.1483 17.977 19.7767 18.8855 18.7501 20.1264C17.7234 21.3672 17.0877 22.8847 16.9234 24.4868C16.7592 26.0889 17.0737 27.7038 17.8272 29.1272C18.5807 30.5506 19.7393 31.7185 21.1566 32.4834C22.574 33.2483 24.1862 33.5757 25.7896 33.4243C27.393 33.2728 28.9155 32.6493 30.1645 31.6326C31.4136 30.6159 32.3331 29.2516 32.8067 27.7123C33.4419 25.6482 33.2311 23.4163 32.2207 21.5076C31.2103 19.5989 29.483 18.1698 27.4189 17.5346ZM23.8265 29.2088C23.0568 28.972 22.3747 28.5122 21.8663 27.8877C21.358 27.2632 21.0462 26.5019 20.9705 25.7002C20.8948 24.8985 21.0585 24.0924 21.4409 23.3837C21.8234 22.6751 22.4073 22.0958 23.119 21.719C23.8307 21.3423 24.6382 21.185 25.4392 21.2671C26.2403 21.3493 26.999 21.6671 27.6194 22.1805C28.2399 22.6938 28.6941 23.3796 28.9248 24.1511C29.1555 24.9226 29.1522 25.7452 28.9153 26.5149C28.5977 27.5469 27.8832 28.4106 26.9288 28.9158C25.9745 29.421 24.8585 29.5264 23.8265 29.2088Z" fill="#5B8FB9"/>
</svg>
