<svg width="300" height="291" viewBox="0 0 300 291" fill="none" xmlns="http://www.w3.org/2000/svg">
<path d="M181.963 218.057C173.958 212.687 105.399 165.991 86.9198 133.31L85.9068 131.511L83.8218 131.432C67.9091 130.783 55.537 139.988 50.2361 144.748C48.0724 142.555 45.8694 140.303 43.6173 137.982L40.9324 135.228L38.2671 138.002C27.8324 148.83 23.2199 158.9 24.5378 167.978C25.6098 175.344 30.6452 181.757 39.1031 186.546C40.6275 187.412 58.2809 199.42 77.4685 214.742C74.1542 218.126 62.1066 225.924 57.74 229.032C52.8324 232.514 32.3859 251.072 32.3859 251.072L45.594 254.19L50.1672 263.12C50.1672 263.12 56.4418 247.758 63.3261 240.175C70.2105 232.592 82.2384 226.534 82.2384 226.534C82.2384 226.534 75.7376 235.818 71.0759 244.827C66.4241 253.836 65.2341 269.453 65.2341 269.453L73.3084 266.896L78.8749 279.032C78.8749 279.032 80.36 261.88 83.7825 250.708C86.546 241.67 93.3222 233.104 95.8399 230.104C120.171 251.524 145.594 277.39 150.679 282.612C153.747 286.133 157.72 288.729 162.893 289.88C164.742 290.283 166.621 290.48 168.45 290.48C178.973 290.48 188.965 283.92 195.397 272.433C202.911 259.068 205.026 238.513 191.985 225.01C188.415 221.282 185.032 219.168 181.963 218.057ZM78.7962 206.284C61.192 192.437 45.1318 181.412 42.7911 180.085C36.31 176.416 32.6515 171.981 31.9139 166.906C31.0484 160.946 34.1169 153.924 41.0405 145.997C58.2612 163.621 72.9839 177.606 85.4839 188.729C79.8289 197.905 78.8356 202.832 78.7962 206.284ZM89.7325 182.524C79.8092 173.702 68.4501 163.011 55.5075 150.049C59.9036 146.204 69.5712 139.133 81.5402 138.847C87.7951 149.105 98.1609 160.366 109.845 171.263C103.767 171.882 96.1743 174.538 89.7325 182.524ZM97.2955 221.499C97.9249 216.739 99.4001 210.179 102.724 203.423C124.616 221.253 137.048 227.773 142.486 230.065C141.64 236.34 140.214 250.797 142.693 264.015C130.94 252.39 113.661 235.69 97.2955 221.499ZM188.946 268.824C184.314 277.075 175.472 285.051 164.526 282.632C145.732 278.482 147.886 241.965 150.305 228.246L150.915 224.774L147.463 223.967C147.315 223.928 135.622 220.643 106.727 197.05C112.156 190.736 120.85 187.913 127.459 186.664C143.775 200.207 160.022 211.91 169.729 218.686C169.434 218.834 169.158 218.971 168.912 219.129C157.72 225.482 153.049 243.863 155.478 252.665C158.33 263.021 165.244 269.67 172.522 269.532C175.629 269.414 183.202 267.663 185.966 253.836L186.399 251.682L184.736 250.275C174.233 241.336 168.548 236.054 165.834 233.409C167.565 230.045 169.847 227.124 172.591 225.57C176.751 223.23 181.481 224.764 186.684 230.163C197.059 240.962 195.132 257.779 188.946 268.824ZM178.167 254.485C176.869 259.196 174.695 262.028 172.227 262.097C172.197 262.097 172.158 262.097 172.109 262.097C169.02 262.097 164.683 258.153 162.628 250.698C161.969 248.318 162.156 244.768 163.041 241.07C166.119 243.952 170.928 248.299 178.167 254.485Z" fill="#5B8FB9"/>
<path d="M58.6054 79.9469L46.843 117.624C46.843 117.624 94.9154 122.295 134.943 134.776C174.99 147.286 217.172 170.801 217.172 170.801L229.131 132.455C229.131 132.455 193.204 96.2431 150.413 82.8875C107.642 69.5417 58.6054 79.9469 58.6054 79.9469Z" fill="#5B8FB9"/>
<path d="M300 133.025L286.005 118.342L287.382 113.887C287.382 113.887 299.715 91.2077 268.657 95.3973C267.044 95.712 266.08 96.2333 265.539 96.8824L173.122 0L0 38.2081L47.6102 80.7337L50.1672 72.5413C50.1672 72.5413 104.858 60.9461 152.547 75.8261C200.246 90.7258 240.313 131.098 240.313 131.098L235.858 145.388L271.617 138.483C265.657 157.543 258.812 179.504 256.678 186.3L246.499 183.114L239.103 206.776L255.586 201.642L267.703 215.716L275.079 192.054L264.074 188.602L280.242 136.812L300 133.025ZM279.504 127.724C278.275 131.678 274.066 133.881 270.112 132.651C266.159 131.412 263.946 127.213 265.175 123.259C266.424 119.306 270.633 117.103 274.577 118.332C278.521 119.561 280.734 123.78 279.504 127.724ZM272.522 104.199C276.426 103.039 283.055 101.839 281.294 107.484C281.117 108.035 280.635 109.628 279.888 111.939L272.522 104.199Z" fill="#5B8FB9"/>
</svg>
