<svg width="558" height="238" viewBox="0 0 558 238" fill="none" xmlns="http://www.w3.org/2000/svg">
<path d="M55 199H366.801L555.071 223.805H243.27L55 199Z" fill="#301E67"/>
<rect width="299.503" height="184" transform="matrix(1 0 0.258819 0.965926 10.6433 8)" fill="#03001C"/>
<path d="M36 102L10 8H286.944C300.539 8 312.435 17.1425 315.933 30.2799L359 192H66.464C65.252 192 65.0845 193.752 66.2746 193.982L247.182 228.878C251.052 229.624 254.984 230 258.925 230H550" stroke="#5B8FB9" stroke-width="15" stroke-linecap="round"/>
<path d="M149.562 60L114.69 92.6697C112.626 94.6032 113.636 98.37 116.736 100.304L169.115 132.973M202.117 60L254.496 92.6697C257.596 94.6032 258.606 98.37 256.542 100.304L221.67 132.973M188.888 62.0133L182.57 131.803" stroke="#B6EADA" stroke-width="10" stroke-linecap="round"/>
</svg>
