<svg width="100" height="100" viewBox="0 0 100 100" fill="none" xmlns="http://www.w3.org/2000/svg">
<path d="M31.046 50.0002L24.3982 54.4466V45.554L31.046 50.0002ZM47.3431 39.099V26.7067L26.5254 40.5838L35.8247 46.8047L47.3431 39.099ZM73.475 40.5838L52.6569 26.7067V39.099L64.1761 46.8047L73.475 40.5838ZM26.5254 59.4164L47.3429 73.2937V60.9012L35.8249 53.1975L26.5254 59.4164ZM52.6569 60.9012V73.2937L73.475 59.4164L64.1761 53.1975L52.6569 60.9012ZM49.9998 43.7145L40.6025 50L49.9998 56.2859L59.3975 50L49.9998 43.7145ZM100 50.0002C100 77.6151 77.6145 99.9996 49.9998 99.9996C22.3865 99.9996 0 77.6151 0 50.0002C0 22.3855 22.3865 0 49.9998 0C77.6145 0 100 22.3855 100 50.0002ZM80.9155 40.5804C80.9155 40.4632 80.907 40.3479 80.8916 40.2339C80.8861 40.1951 80.8771 40.1575 80.8706 40.1184C80.8569 40.0436 80.8438 39.9687 80.8243 39.8955C80.8129 39.8515 80.7969 39.8094 80.7828 39.7671C80.7618 39.702 80.7407 39.6372 80.7147 39.5736C80.6967 39.5297 80.6746 39.4859 80.6552 39.4436C80.6266 39.3834 80.5973 39.3249 80.565 39.2681C80.5411 39.2256 80.5143 39.1851 80.489 39.1444C80.4532 39.0892 80.4168 39.0354 80.3771 38.9834C80.3477 38.9444 80.3176 38.9055 80.2851 38.8681C80.2436 38.8194 80.1996 38.7704 80.1534 38.7249C80.1182 38.689 80.0841 38.6534 80.0478 38.6209C79.9996 38.5769 79.9483 38.5348 79.8965 38.4939C79.8573 38.4632 79.8184 38.4323 79.7769 38.4029C79.7616 38.3932 79.7477 38.3802 79.7321 38.3704L51.4742 19.5311C50.5812 18.9358 49.4192 18.9358 48.5264 19.5311L20.2677 38.3704C20.2528 38.3802 20.2391 38.3932 20.2245 38.4029C20.183 38.4321 20.1432 38.4632 20.1041 38.4939C20.0521 38.5348 20.0016 38.5771 19.9534 38.6209C19.9168 38.6534 19.8822 38.6892 19.847 38.7249C19.8008 38.7704 19.7577 38.8194 19.7145 38.8681C19.6836 38.9053 19.6528 38.9444 19.6235 38.9834C19.5845 39.0356 19.547 39.0892 19.5119 39.1444C19.4849 39.1851 19.4599 39.2256 19.4356 39.2681C19.4031 39.3249 19.374 39.3836 19.3452 39.4436C19.3249 39.4859 19.3045 39.5297 19.2859 39.5736C19.2599 39.6372 19.238 39.702 19.2174 39.7671C19.2029 39.8094 19.1885 39.8517 19.1761 39.8955C19.1564 39.9687 19.1436 40.0436 19.1295 40.1184C19.1233 40.1575 19.1135 40.1951 19.1086 40.2339C19.0931 40.3477 19.0841 40.4632 19.0841 40.5804V59.4198C19.0841 59.537 19.0931 59.6522 19.1086 59.7677C19.1135 59.8051 19.1233 59.8442 19.1295 59.8816C19.1436 59.9566 19.1566 60.0313 19.1761 60.1045C19.1885 60.1485 19.2029 60.1906 19.2174 60.2329C19.2378 60.2978 19.2599 60.363 19.2859 60.4284C19.3045 60.4722 19.3249 60.5141 19.3452 60.5566C19.3738 60.6168 19.4031 60.6751 19.4356 60.7337C19.4599 60.7744 19.4849 60.8151 19.5119 60.8558C19.5472 60.911 19.5845 60.9648 19.6235 61.0166C19.6526 61.0573 19.6836 61.0947 19.7145 61.1321C19.7577 61.1808 19.8006 61.2297 19.847 61.2751C19.8822 61.3112 19.9168 61.3466 19.9534 61.3793C20.0014 61.4233 20.0521 61.4652 20.1041 61.5059C20.1432 61.5368 20.183 61.5677 20.2245 61.5971C20.2391 61.6068 20.2528 61.6198 20.2677 61.6295L48.5264 80.4691C48.9728 80.7667 49.4869 80.916 50 80.916C50.5147 80.916 51.0278 80.7665 51.4742 80.4691L79.7321 61.6295C79.7476 61.6198 79.7614 61.6068 79.7769 61.5971C79.8184 61.5679 79.8573 61.5368 79.8965 61.5059C79.9485 61.4652 79.9996 61.4231 80.0478 61.3793C80.0841 61.3466 80.1182 61.311 80.1534 61.2751C80.1996 61.2297 80.2436 61.1808 80.2851 61.1321C80.3176 61.0949 80.3476 61.0573 80.3771 61.0166C80.4168 60.9646 80.4534 60.911 80.489 60.8558C80.5143 60.8151 80.5411 60.7744 80.565 60.7337C80.5973 60.6751 80.6266 60.6166 80.6552 60.5566C80.6746 60.5141 80.6967 60.472 80.7147 60.4284C80.7407 60.363 80.7616 60.2978 80.7828 60.2329C80.7969 60.1906 80.8129 60.1483 80.8243 60.1045C80.844 60.0313 80.8569 59.9566 80.8706 59.8816C80.8771 59.8442 80.8861 59.8051 80.8916 59.7677C80.907 59.6522 80.9155 59.5368 80.9155 59.4198V40.5804ZM75.602 54.4466V45.554L68.9552 50.0002L75.602 54.4466Z" fill="#03001C"/>
</svg>
