<svg width="363" height="363" viewBox="0 0 363 363" fill="none" xmlns="http://www.w3.org/2000/svg">
<g clip-path="url(#clip0_107_1226)">
<path d="M239.617 263.947L231.972 261.144C230.193 260.489 228.202 260.969 226.919 262.364L217.567 272.483L204.633 267.745C202.854 267.09 200.863 267.57 199.579 268.965L190.227 279.084L177.293 274.346C175.515 273.691 173.523 274.171 172.24 275.566L166.712 281.55L142.363 180.704L133.25 182.904L159.654 292.262C159.95 293.487 160.728 294.515 161.774 295.15L161.767 295.161L212.677 326.268C213.78 326.942 215.055 327.107 216.221 326.826C217.388 326.544 218.446 325.816 219.12 324.713L250.228 273.802L250.217 273.795C250.857 272.753 251.081 271.484 250.785 270.258L229.882 183.684L220.769 185.884L239.617 263.947ZM177.002 284.225L189.936 288.962C191.715 289.618 193.706 289.137 194.989 287.742L204.342 277.624L217.276 282.361C219.054 283.017 221.045 282.536 222.329 281.141L231.681 271.023L239.245 273.792L225.96 295.541L193.28 303.432L171.536 290.145L177.002 284.225ZM213.565 315.826L204.594 310.344L219.047 306.855L213.565 315.826Z" fill="#5B8FB9"/>
<path d="M110.418 146.401C109.482 144.881 107.765 144.023 105.987 144.187L92.3177 145.452L83.5177 134.909C81.2342 132.162 76.1263 133.396 75.3478 136.882L72.3292 150.283L59.5885 155.395C57.9312 156.06 56.7989 157.602 56.6561 159.387C56.5201 161.16 57.4 162.867 58.9355 163.774L70.745 170.784L71.6668 184.488C71.7877 186.267 72.9064 187.825 74.5517 188.508C76.2129 189.196 78.1028 188.875 79.4379 187.694L89.7536 178.631L103.068 181.989C103.818 182.179 104.594 182.175 105.318 182C106.261 181.772 107.13 181.254 107.787 180.483C108.944 179.123 109.229 177.227 108.52 175.59L103.087 162.975L110.397 151.349C111.339 149.839 111.348 147.917 110.418 146.401ZM93.8359 160.068C93.017 161.37 92.8902 163.002 93.5018 164.417L96.1501 170.572L89.6544 168.933C88.9045 168.743 88.1336 168.746 87.4045 168.922C86.6755 169.098 85.9928 169.446 85.4077 169.959L80.3753 174.381L79.9233 167.695C79.822 166.157 78.9657 164.768 77.6419 163.978L71.8836 160.561L78.1 158.067C79.5337 157.494 80.5886 156.251 80.9293 154.746L82.4043 148.212L86.6979 153.353C87.6877 154.537 89.1936 155.162 90.7308 155.017L97.4004 154.4L93.8359 160.068Z" fill="#5B8FB9"/>
<path d="M91.8212 89.8711L92.9734 107.006C93.0943 108.785 94.213 110.342 95.8594 111.03C97.5184 111.71 99.4048 111.394 100.745 110.212L113.641 98.8764L130.289 103.079C131.039 103.269 131.815 103.265 132.539 103.09C133.482 102.862 134.351 102.344 135.009 101.577C136.165 100.213 136.45 98.3168 135.741 96.6796L128.948 80.9069L138.09 66.3643C139.037 64.853 139.047 62.9363 138.116 61.4201C137.181 59.9004 135.464 59.0418 133.686 59.206L116.593 60.7917L105.588 47.6079C103.304 44.8608 98.1965 46.0941 97.418 49.5805L93.6459 66.3322L77.7036 72.7227C76.0463 73.3881 74.914 74.9297 74.7711 76.7147C74.6352 78.4883 75.515 80.1951 77.0505 81.1023L91.8212 89.8711ZM99.4213 74.1144C100.855 73.5416 101.91 72.2983 102.251 70.7935L104.478 60.9055L110.976 68.6867C111.966 69.8702 113.472 70.4952 115.009 70.3507L125.104 69.418L119.707 78.0025C118.888 79.3045 118.761 80.9361 119.373 82.3509L123.382 91.6684L113.553 89.1857C112.803 88.9955 112.032 88.9984 111.303 89.1744C110.574 89.3504 109.892 89.6985 109.307 90.2111L101.693 96.9053L101.01 86.7846C100.908 85.2466 100.052 83.8572 98.7283 83.0677L90.0089 77.8915L99.4213 74.1144Z" fill="#5B8FB9"/>
<path d="M224.88 88.7511L239.248 65.8966C240.195 64.3853 240.205 62.4686 239.275 60.9524C238.339 59.4327 236.622 58.5741 234.844 58.7383L207.969 61.2342L190.675 40.513C188.391 37.766 183.283 38.9993 182.505 42.4857L176.57 68.8155L151.519 78.8617C149.862 79.5271 148.729 81.0687 148.586 82.8537C148.45 84.6273 149.33 86.3341 150.866 87.2413L174.08 101.022L175.886 127.956C176.007 129.735 177.126 131.293 178.771 131.976C180.431 132.66 182.322 132.343 183.657 131.162L203.934 113.343L230.107 119.947C230.857 120.137 231.632 120.134 232.357 119.959C233.3 119.731 234.168 119.213 234.826 118.441C235.983 117.082 236.268 115.185 235.559 113.548L224.88 88.7511ZM215.629 85.849C214.81 87.151 214.684 88.7826 215.295 90.1973L223.193 108.529L203.84 103.649C203.09 103.459 202.319 103.462 201.59 103.638C200.861 103.814 200.179 104.162 199.594 104.674L184.599 117.848L183.263 97.9315C183.161 96.3936 182.305 95.0042 180.981 94.2147L163.819 84.027L182.341 76.5988C183.775 76.026 184.829 74.7828 185.17 73.278L189.56 53.8117L202.348 69.1303C203.338 70.3139 204.844 70.9388 206.381 70.7943L226.253 68.9525L215.629 85.849Z" fill="#5B8FB9"/>
<path d="M289.172 127.048L277.216 128.161L269.516 118.938C267.233 116.191 262.125 117.425 261.346 120.911L258.708 132.629L247.557 137.096C245.9 137.762 244.767 139.303 244.623 141.084C244.489 142.862 245.368 144.569 246.904 145.476L257.238 151.608L258.039 163.595C258.16 165.374 259.279 166.932 260.924 167.615C261.861 168.001 262.871 168.066 263.814 167.838C264.538 167.663 265.225 167.314 265.811 166.801L274.833 158.875L286.479 161.811C288.211 162.251 290.037 161.666 291.199 160.31C292.355 158.945 292.64 157.049 291.931 155.412L287.179 144.378L293.572 134.208C294.519 132.697 294.529 130.78 293.597 129.259C292.661 127.739 290.949 126.88 289.172 127.048ZM277.933 141.475C277.114 142.777 276.987 144.409 277.599 145.823L279.567 150.397L274.745 149.179C273.995 148.989 273.224 148.992 272.495 149.168C271.766 149.344 271.083 149.692 270.498 150.205L266.763 153.489L266.431 148.52C266.33 146.982 265.473 145.593 264.15 144.803L259.866 142.259L264.487 140.411C265.921 139.838 266.976 138.594 267.317 137.09L268.411 132.235L271.604 136.054C272.595 137.243 274.1 137.863 275.637 137.718L280.594 137.255L277.933 141.475Z" fill="#5B8FB9"/>
<path d="M172.847 207.099L181.96 204.899C174.074 172.237 143.13 151.586 112.979 158.865L115.179 167.978C140.304 161.912 166.174 179.463 172.847 207.099Z" fill="#5B8FB9"/>
<path d="M205.687 223.281L214.8 221.08C207.047 188.97 215.106 158.318 232.394 154.144L230.194 145.031C207.197 150.583 196.433 184.955 205.687 223.281Z" fill="#5B8FB9"/>
<path d="M150.532 154.621L159.645 152.42C157.218 142.368 161.377 132.713 168.914 130.893L166.713 121.78C154.151 124.813 146.891 139.543 150.532 154.621Z" fill="#5B8FB9"/>
<path d="M108.734 121.313C116.271 119.493 124.377 126.187 126.804 136.238L135.918 134.038C132.277 118.96 119.096 109.166 106.534 112.2L108.734 121.313Z" fill="#5B8FB9"/>
<path d="M213.223 134.662L211.023 125.548C188.409 131.009 174.949 155.891 181.016 181.016L190.129 178.815C185.276 158.716 195.64 138.907 213.223 134.662Z" fill="#5B8FB9"/>
<path d="M217 230.194L207.887 232.394L210.088 241.507L219.201 239.307L217 230.194Z" fill="#5B8FB9"/>
<path d="M192.329 187.928L183.216 190.129L185.416 199.242L194.529 197.042L192.329 187.928Z" fill="#5B8FB9"/>
<path d="M184.16 214.012L175.047 216.212L177.247 225.325L186.361 223.125L184.16 214.012Z" fill="#5B8FB9"/>
<path d="M188.561 232.238L179.448 234.438L181.648 243.551L190.761 241.351L188.561 232.238Z" fill="#5B8FB9"/>
<path d="M192.962 250.464L183.849 252.665L186.049 261.778L195.162 259.577L192.962 250.464Z" fill="#5B8FB9"/>
<path d="M96.7971 191.706L87.684 193.906L89.8843 203.019L98.9974 200.819L96.7971 191.706Z" fill="#5B8FB9"/>
<path d="M26.7159 141.116L17.6028 143.316L19.8031 152.429L28.9163 150.229L26.7159 141.116Z" fill="#5B8FB9"/>
<path d="M58.7677 114.088L49.6545 116.289L51.8549 125.402L60.968 123.201L58.7677 114.088Z" fill="#5B8FB9"/>
<path d="M251.088 91.7638L241.975 93.9642L244.175 103.077L253.288 100.877L251.088 91.7638Z" fill="#5B8FB9"/>
<path d="M293.509 47.766L284.396 49.9663L286.596 59.0794L295.709 56.8791L293.509 47.766Z" fill="#5B8FB9"/>
<path d="M32.8403 86.5929L23.7272 88.7933L25.9275 97.9064L35.0406 95.7061L32.8403 86.5929Z" fill="#5B8FB9"/>
<path d="M63.6361 74.3351L54.5229 76.5355L56.7233 85.6486L65.8364 83.4482L63.6361 74.3351Z" fill="#5B8FB9"/>
<path d="M231.129 29.0721L222.016 31.2725L224.216 40.3856L233.329 38.1853L231.129 29.0721Z" fill="#5B8FB9"/>
<path d="M267.269 58.9236L258.156 61.124L260.357 70.2371L269.47 68.0367L267.269 58.9236Z" fill="#5B8FB9"/>
<path d="M44.6304 175.368L35.5173 177.568L37.7177 186.681L28.6045 188.882L30.8049 197.995L39.918 195.795L42.1183 204.908L51.2315 202.707L49.0311 193.594L58.1443 191.394L55.9439 182.281L46.8308 184.481L44.6304 175.368Z" fill="#5B8FB9"/>
<path d="M295.553 76.2056L286.44 78.4059L288.64 87.519L279.527 89.7194L281.728 98.8325L290.841 96.6322L293.041 105.745L302.154 103.545L299.954 94.4318L309.067 92.2315L306.867 83.1183L297.754 85.3187L295.553 76.2056Z" fill="#5B8FB9"/>
<path d="M277.95 3.30052C270.414 5.12021 265.761 12.7342 267.581 20.2707C269.401 27.8073 277.015 32.4596 284.551 30.6399C292.088 28.8202 296.74 21.2062 294.921 13.6697C293.101 6.13313 285.487 1.48083 277.95 3.30052ZM282.351 21.5268C279.836 22.1341 277.302 20.5856 276.694 18.0704C276.087 15.5552 277.635 13.0209 280.151 12.4136C282.666 11.8064 285.2 13.3548 285.807 15.87C286.415 18.3853 284.866 20.9195 282.351 21.5268Z" fill="#5B8FB9"/>
</g>
<defs>
<clipPath id="clip0_107_1226">
<rect width="300" height="300" fill="white" transform="translate(0 70.4111) rotate(-13.5742)"/>
</clipPath>
</defs>
</svg>
