<svg width="100" height="100" viewBox="0 0 100 100" fill="none" xmlns="http://www.w3.org/2000/svg">
<g clip-path="url(#clip0_108_1260)">
<path d="M2.5 49.35C2.5 75.15 2.7 96.55 2.9 96.9C3.25 97.4 9.2 97.5 31.05 97.4L58.75 97.25L58.9 88.45L59 79.6L57.75 79.3C57.05 79.1 48.6 79 38.95 79C29.3 79.05 21.3 78.95 21.2 78.85C20.7 78.4 20.75 59.5 21.25 59.35C21.5 59.25 25.7 59.1 30.5 59.05C35.25 59 39.4 58.8 39.6 58.7C40.15 58.35 40.1 41.95 39.55 41.1C39.25 40.55 37.2 40.45 30.45 40.5C25.65 40.55 21.55 40.55 21.25 40.55C20.95 40.5 20.75 37.45 20.75 32.35C20.75 27.9 20.55 23.7 20.35 23C20.05 22.15 20.1 21.95 20.4 22.45C20.8 23 20.95 22.9 21.1 22L21.25 20.85L39.25 20.95C53.75 21.05 57.45 20.9 58.15 20.4C59 19.75 59.1 18.9 59.05 11.5C59 6.99997 58.85 3.14997 58.7 2.89997C58.55 2.69997 45.85 2.49997 30.45 2.49997H2.5V49.35Z" fill="#961515"/>
<path d="M78.5999 3.99998C77.1499 4.79998 75.8999 5.59998 75.8499 5.84998C75.7999 6.04998 75.5999 6.19998 75.3999 6.14998C74.7499 5.89998 72.1999 9.69998 71.3999 12.15C70.2999 15.65 71.0499 21.05 72.8499 22.15C73.1999 22.35 73.4999 22.85 73.4999 23.2C73.4999 24.4 75.5499 26.6 76.3999 26.25C76.8499 26.1 77.0499 26.1 76.8499 26.3C76.2499 26.95 81.1999 29.05 83.2499 29C86.8499 28.95 87.2499 28.9 87.9999 28.65C88.8999 28.3 89.3499 28.15 89.9499 28.05C90.1499 28.05 91.5999 26.8 93.0499 25.35C96.3999 22.15 97.7499 18.85 97.2999 14.9C96.8999 11.15 96.8999 11 96.3999 11C96.1999 11 95.9999 10.55 95.9999 10.05C95.9999 8.74998 91.4499 4.49998 89.0999 3.59998C88.0999 3.19998 85.8999 2.79998 84.2499 2.69998C81.6999 2.54998 80.8499 2.69998 78.5999 3.99998Z" fill="#961515"/>
<path d="M60.55 41.65C60 43.2 59.9 57.6 60.4 58.4C60.75 58.9 62.95 59.05 69.45 59.05C74.2 59.05 78.35 59.15 78.65 59.3C79.1 59.45 79.2 64.1 79.1 78.25L78.95 96.95L80.1 97.25C80.75 97.4 84.85 97.45 89.25 97.4L97.25 97.25L97.4 68.75C97.5 43.3 97.45 40.4 96.75 41.25C96.15 42.05 96.05 42.1 96.3 41.4C96.6 40.55 95.5 40.5 78.8 40.55H60.95L60.55 41.65Z" fill="#961515"/>
<path d="M2.35 2.35001C2.15 2.50001 2 2.90001 2 3.20001C2 3.55001 2.15 3.50001 2.4 3.15001C2.7 2.65001 9.2 2.50001 31.05 2.35001L59.25 2.25001L30.95 2.10001C15.4 2.05001 2.5 2.15001 2.35 2.35001Z" fill="#964040"/>
<path d="M83.1501 2.34999C83.6001 2.44999 84.4001 2.44999 84.9001 2.34999C85.3501 2.19999 84.9501 2.09999 84.0001 2.09999C83.0501 2.09999 82.6501 2.19999 83.1501 2.34999Z" fill="#964040"/>
<path d="M2.25 50.5C2.25 75.65 2.3 85.95 2.35 73.4C2.45 60.8 2.45 40.2 2.35 27.65C2.3 15.05 2.25 25.35 2.25 50.5Z" fill="#964040"/>
<path d="M97.6001 16C97.6001 16.95 97.7001 17.35 97.8501 16.85C97.9501 16.4 97.9501 15.6 97.8501 15.1C97.7001 14.65 97.6001 15.05 97.6001 16Z" fill="#964040"/>
<path d="M59.7 50.5C59.7 54.2 59.75 55.75 59.85 53.85C59.95 52 59.95 49 59.85 47.1C59.75 45.25 59.7 46.8 59.7 50.5Z" fill="#964040"/>
<path d="M97.6 70.6L97.5 97.5L88.4 97.65L79.25 97.75L88.4 97.9C95.35 97.95 97.6 97.85 97.75 97.4C97.9 97.05 97.95 84.85 97.9 70.25L97.75 43.75L97.6 70.6Z" fill="#964040"/>
<path d="M2.15002 97C2.25002 97.4 2.95002 97.8 3.80002 97.85C5.05002 97.9 5.10002 97.85 4.00002 97.65C3.30002 97.5 2.55002 97.15 2.35002 96.8C2.05002 96.45 2.00002 96.5 2.15002 97Z" fill="#964040"/>
<path d="M20.0999 97.85C26.9499 97.95 38.0499 97.95 44.8999 97.85C51.6999 97.8 46.0999 97.75 32.4999 97.75C18.8999 97.75 13.2999 97.8 20.0999 97.85Z" fill="#964040"/>
</g>
<defs>
<clipPath id="clip0_108_1260">
<rect width="100" height="100" fill="white"/>
</clipPath>
</defs>
</svg>
