<svg width="100" height="76" viewBox="0 0 100 76" fill="none" xmlns="http://www.w3.org/2000/svg">
    <path fill-rule="evenodd" clip-rule="evenodd" d="M100.098 75.4022V0.74353H0.0976562V75.4022H100.098ZM85.762 60.0987V74.624H15.5634V60.877H15.6838L16.0391 60.7586L42.3922 39.5384L50.3648 46.2936L57.4442 40.0744L85.762 60.0987ZM85.762 57.5304L58.9296 38.76L85.762 15.5077V57.5304ZM81.3018 1.52005L77.6707 4.98678L75.9464 6.66369L74.3407 8.33335L72.6746 9.88795L71.129 11.4427L69.6417 12.8772L68.271 14.3116L66.8436 15.6277L65.5348 16.9437L63.0961 19.3936L60.7738 21.6046L59.7059 22.6216L58.7526 23.6369L57.7429 24.4754L56.8478 25.3103L55.244 26.8668L54.4693 27.5232L53.8149 28.1829L53.1605 28.7152L52.6227 29.3167L51.6129 30.1551L51.1975 30.4504L50.8986 30.8114L50.5433 30.9899L50.3043 31.2304L50.0072 31.4674L19.7849 1.40146L81.3018 1.52005ZM40.8466 38.2224L15.5634 58.4253L15.6217 16.7633L40.8466 38.2224Z" fill="#03001C"/>
</svg>
