<svg width="563" height="238" viewBox="0 0 563 238" fill="none" xmlns="http://www.w3.org/2000/svg">
<path d="M300.146 24H0.643311L48.266 201.73H347.769L300.146 24Z" fill="#03001C"/>
<path d="M154.562 61L119.69 93.6697C117.626 95.6032 118.636 99.37 121.736 101.304L174.115 133.973M207.117 61L259.496 93.6697C262.596 95.6032 263.606 99.37 261.542 101.304L226.67 133.973M193.888 63.0133L187.57 132.803" stroke="#B6EADA" stroke-width="10" stroke-linecap="round"/>
<path d="M41 102L15 8H291.944C305.539 8 317.435 17.1425 320.933 30.2799L364 192H71.464C70.252 192 70.0845 193.752 71.2746 193.982L252.182 228.878C256.052 229.624 259.984 230 263.925 230H555" stroke="#5B8FB9" stroke-width="15" stroke-linecap="round"/>
<path d="M138.5 193H148H379.5L560.5 218H264L138.5 193Z" fill="#301E67"/>
</svg>
