<svg width="280" height="280" viewBox="0 0 280 280" fill="none" xmlns="http://www.w3.org/2000/svg">
<rect width="280" height="280" fill="#03001C"/>
<path d="M131.279 148.043H98.2961L112.607 143.686L98.2961 139.218H112.607L94.3828 131.51L114.173 136.537L98.2961 123.803L116.409 133.186L112.607 123.803L129.043 140.894L148.833 192.055H158.224L178.014 176.64L205.631 136.537H214.911V123.803L194.003 116.653L200.04 133.186L184.164 159.549L171.418 165.134L178.014 143.686L163.144 108.387L152.746 47.395L178.014 19.9151L214.911 15L246.328 23.1546L257.844 47.395L260.64 69.9598L265 79.79L257.844 84.8168L250.13 56.2198L228.663 42.4799L210.55 51.7516L180.809 67.1671L174.772 69.9598L178.014 94.0885L189.083 112.297L222.066 120.563V136.537L228.663 133.186M228.663 133.186L257.844 192.055L231.458 225.009H210.55L200.04 231.6H210.55L189.083 244.223L210.55 235.509L200.04 244.223L214.911 238.749L205.631 247.015L218.265 238.749C215.693 243.366 210.55 252.042 210.55 249.808C210.55 247.574 222.625 236.738 228.663 231.6L235.259 235.509H240.291L231.458 179.879L228.663 133.186Z" stroke="#B6EADA" stroke-width="3"/>
<path d="M215.246 136.872H222.066" stroke="#B6EADA" stroke-width="3"/>
<path d="M225.979 120.005L244.092 109.504L256.167 88.6149V101.796L248.564 128.829L256.167 144.692L236.378 135.979L233.135 120.005" stroke="#B6EADA" stroke-width="3"/>
<path d="M206.413 137.542L215.47 182.114L220.389 216.184" stroke="#B6EADA" stroke-width="3"/>
<path d="M122.335 188.593H24.3918L15 196.3V257.404L24.3918 265H122.335L131.167 257.404V196.3L122.335 188.593Z" fill="#B6EADA"/>
<path d="M136.087 250.255H165.827L136.087 260.643M24.3918 188.593H122.335L131.167 196.3V257.404L122.335 265H24.3918L15 257.404V196.3L24.3918 188.593Z" stroke="#B6EADA" stroke-width="3"/>
<path d="M195.568 80.3485L199.481 75.6569H205.631L208.985 80.3485V85.9339L202.276 88.7266L195.568 85.9339V80.3485Z" stroke="#B6EADA" stroke-width="3"/>
<path d="M229.222 82.5826L234.029 79.5665H239.061L241.744 82.5826L239.061 86.8275H232.352L229.222 82.5826Z" stroke="#B6EADA" stroke-width="3"/>
<path d="M202.835 101.573L207.867 104.03L218.153 106.823H226.427L232.352 104.03L236.825 100.121" stroke="#B6EADA" stroke-width="3"/>
<path d="M197.245 70.4066L198.922 75.992" stroke="#B6EADA" stroke-width="3"/>
<path d="M203.395 69.5129V75.6568" stroke="#B6EADA" stroke-width="3"/>
<path d="M210.326 72.6407L206.413 75.992" stroke="#B6EADA" stroke-width="3"/>
<path d="M228.998 76.2153L232.576 80.3485" stroke="#B6EADA" stroke-width="3"/>
<path d="M235.707 74.3163V79.2314" stroke="#B6EADA" stroke-width="3"/>
<path d="M242.303 75.9919L239.844 79.2314" stroke="#B6EADA" stroke-width="3"/>
<path d="M52.5671 230.818L55.3623 222.775L60.2818 230.818L62.7416 227.02L64.8659 230.818H69.45H74.034L77.9473 227.02L84.5439 230.818H90.246" stroke="#03001C" stroke-width="3"/>
<path d="M200 133L184 159.5L171.5 165.5L177.5 143.5L163 108.5L153 46.5L179 20L215.5 15L246 23L258 47.5L260.5 70.5L265 79.5L258 84.5L251 56L228.5 42.5L175 70.5L177.5 94.5L188.5 112L193.5 116L200 133Z" fill="#B6EADA"/>
<path d="M256 100.5L255 93L246.5 112L233 120.5L236.5 135.5L256 143.5L248.5 129L256 100.5Z" fill="#B6EADA"/>
</svg>
